<svg xmlns="http://www.w3.org/2000/svg" version="1.1" xmlns:xlink="http://www.w3.org/1999/xlink" viewBox="0 0 700 700" style="overflow: hidden; display: block;" width="700" height="700"><defs><linearGradient id="two-31" x1="350" y1="-350" x2="350" y2="350" spreadMethod="pad" gradientUnits="userSpaceOnUse"><stop offset="0%" stop-color="hsl(1.4, 100%, 67%)" stop-opacity="1"></stop><stop offset="100%" stop-color="hsl(167, 52%, 78%)" stop-opacity="1"></stop></linearGradient></defs><g id="two-0" transform="matrix(1 0 0 1 0 0)" opacity="1"><path transform="matrix(1 0 0 1 350 350)" id="two-91" d="M 218.535024 64.167672 C 208.780908 87.744602 230.850904 118.315739 220.13059 141.46934 C 209.904103 163.556379 186.785861 183.259031 162.915239 188.014208 C 132.79432 194.014484 103.998252 156.2641 73.723348 161.431615 C 55.339031 164.569568 46.59331 195.843975 27.982947 194.625674 C 5.637839 193.162884 1.103396 148.834706 -21.272079 147.950555 C -52.369887 146.721748 -67.652032 191.704454 -94.632677 207.216657 C -133.446766 229.532358 -190.261326 287.681678 -221.413397 255.52468 C -259.935518 215.759882 -152.516627 155.92832 -156.730775 100.724752 C -158.096005 82.840798 -187.075807 72.15887 -185.055088 54.337076 C -182.23018 29.422721 -127.695072 24.711253 -131.944675 0 C -144.190362 -71.208124 -320.305852 -24.670098 -328.502567 -96.457057 C -332.301713 -129.73003 -282.036353 -151.399412 -249.821793 -160.550718 C -209.852252 -171.905008 -159.163331 -120.615131 -124.972485 -144.225936 C -101.174069 -160.660152 -132.429744 -220.915682 -104.817109 -229.517454 C -69.768479 -240.435655 -57.996143 -163.409878 -22.276913 -154.939329 C -6.824193 -151.274832 8.665077 -171.403639 24.116403 -167.733269 C 40.197169 -163.91338 45.111746 -137.679238 61.253746 -134.126997 C 86.682502 -128.531093 111.302206 -151.360408 136.576382 -157.617549 C 186.30985 -169.930087 254.273028 -223.331175 289.239132 -185.882704 C 314.63118 -158.687984 260.180653 -113.879485 261.169653 -76.68633 C 261.874837 -50.166593 291.862124 -25.70305 285.293488 -0.000001 C 277.727549 29.60549 230.21664 35.931732 218.535024 64.167672 Z " fill="hsl(45, 94%, 65%)" stroke="undefined" stroke-width="1" stroke-opacity="1" fill-opacity="1" visibility="visible" stroke-linecap="butt" stroke-linejoin="miter" stroke-miterlimit="4"></path></g></svg>